<?xml version="1.0" encoding="UTF-8"?><svg id="a11" xmlns="http://www.w3.org/2000/svg" viewBox="0 0 160 160"><defs><style>.cls-11{fill:#de1f26;}@media(prefers-color-scheme:dark){.cls-11{fill:#ff00ff;}}.cls-12{isolation:isolate;opacity:.17;}</style></defs><path id="c11" class="cls-11" d="m156,102.6l-.1-35.6c0-8.2-6.7-14.8-14.9-14.8h-1.3c-1.7,0-3.3.3-4.8.8v-28.9c0-8.2-6.6-14.8-14.9-14.8H39.7c-8.2-.1-14.8,6.6-14.8,14.8l-.1,28.9c-1.5-.5-3.1-.8-4.7-.8h-1.3c-8.2,0-14.9,6.6-14.9,14.8v47.9c0,8.2,6.7,14.9,14.9,14.9h5.8v6c0,8.2,6.6,14.9,14.9,14.9h1.3c8.2,0,14.9-6.6,14.9-14.9v-6h48v6c0,8.2,6.6,14.9,14.9,14.9h1.3c8.2,0,14.9-6.6,14.9-14.9v-6h6.4c8.2,0,14.9-6.7,14.9-14.8,0,0-.1-10.8-.1-12.4h0Z"/><path id="b11" class="cls-12" d="m155.9,67c0-8.2-6.7-14.8-14.9-14.8h-1.3c-8.2,0-14.8,6.7-14.8,14.8l-.2,30.6H35v-30.6c0-8.2-6.7-14.8-14.9-14.8h-1.3c-8.2,0-14.9,6.6-14.9,14.8v47.9c0,8.2,6.7,14.9,14.9,14.9h122.4c8.2,0,14.9-6.7,14.9-14.8,0,0-.1-10.8-.1-12.4l-.1-35.6h0Z"/></svg>