<?xml version="1.0" encoding="UTF-8"?><svg id="a55" xmlns="http://www.w3.org/2000/svg" viewBox="0 0 160 160"><defs><style>.cls-51{fill:#fff;}.cls-52{fill:#747484;}</style></defs><path id="d55" class="cls-52" d="m155.9,50.2c0-17.1-13.9-31-31-31-15.9,0-29,12-30.8,27.4-4.5-1.4-9.2-2.1-14.1-2.1s-9.6.7-14.1,2.1c-1.8-15.4-14.9-27.4-30.8-27.4-17.1,0-31,13.9-31,31s12.9,30,29.2,31c-.9,3.7-1.4,7.5-1.4,11.4,0,26.6,21.6,48.2,48.2,48.2s48.2-21.6,48.2-48.2c0-3.9-.5-7.8-1.4-11.4,16.1-1,29-14.5,29-31h0Z"/><circle id="c55" class="cls-51" cx="62.2" cy="85.2" r="8.3"/><circle id="b55" class="cls-51" cx="97.8" cy="85.2" r="8.3"/></svg>