<?xml version="1.0" encoding="UTF-8"?><svg id="a44" xmlns="http://www.w3.org/2000/svg" viewBox="0 0 160 160"><defs><style>.cls-41{fill:#eee8e7;}.cls-42{fill:snow;}</style></defs><path id="d44" class="cls-41" d="m134.95,65.25c0-30.4-24.7-55-55-55s-55,24.7-55,55l-.2,70.7c0,7.6,6.2,13.8,13.8,13.8s13.2-5.7,13.8-12.8c.5,7.2,6.5,12.8,13.8,12.8s13.2-5.7,13.8-12.8c.5,7.2,6.5,12.8,13.8,12.8s13.2-5.7,13.8-12.8c.5,7.2,6.5,12.8,13.8,12.8s13.8-6.2,13.8-13.8l.1-70.7h-.3Z"/><circle id="c44" class="cls-42" cx="62.25" cy="59.25" r="8.3"/><circle id="b44" class="cls-42" cx="97.85" cy="59.25" r="8.3"/></svg>