<?xml version="1.0" encoding="UTF-8"?><svg id="a33" xmlns="http://www.w3.org/2000/svg" viewBox="0 0 160 160"><defs><style>.cls-31{fill:#fff;}.cls-32{fill:#4c5aa8;}</style></defs><path id="d33" class="cls-32" d="m39.9,11.05h80.3c8.2,0,14.8,6.6,14.8,14.8v108.2c0,8.2-6.6,14.9-14.8,14.9H39.9c-8.2,0-14.9-6.6-14.9-14.9V25.85c.1-8.2,6.7-14.8,14.9-14.8Z"/><path id="c33" class="cls-31" d="m49.1,37.85h53.2c3.3,0,6,2.7,6,6h0c0,3.3-2.7,6-6,6h-53.2c-3.3,0-6-2.7-6-6h0c0-3.3,2.7-6,6-6Z"/><path id="b33" class="cls-31" d="m49.1,61.95h38.1c3.3,0,6,2.7,6,6h0c0,3.3-2.7,6-6,6h-38.1c-3.3,0-6-2.7-6-6h0c0-3.3,2.7-6,6-6Z"/></svg>