<?xml version="1.0" encoding="UTF-8"?><svg id="a22" xmlns="http://www.w3.org/2000/svg" viewBox="0 0 160 160"><defs><style>.cls-12{fill:#af7045;}.cls-22{fill:#197f36;}</style></defs><path id="c22" class="cls-22" d="m111.65,70.2c-1.1-8.3-6.7-14.1-13.8-15.5V19.6c0-8.7-7.1-4.7-15.8-4.7h-3.9c-8.7,0-15.8-4-15.8,4.7v35c-7.7,1-13.8,7.4-14.9,15.6l-7.5,69.4c0,8.7,7.1,15.7,15.7,15.7h48.7c8.7,0,15.7-7.1,15.7-15.7,0,0-8.4-69.4-8.4-69.4Z"/><path id="b22" class="cls-12" d="m66.8,4.7h26.4c3.9,0,7.1,3.2,7.1,7h0c0,3.9-3.2,7-7.1,7h-26.4c-3.9,0-7.1-3.2-7.1-7h0c.1-3.9,3.2-7,7.1-7Z"/></svg>